<svg width="27" height="27" viewBox="0 0 27 27" fill="none" xmlns="http://www.w3.org/2000/svg">
<g clip-path="url(#clip0_51_16)">
<path d="M26.5613 22.8537C26.7012 22.9931 26.8121 23.1587 26.8878 23.341C26.9635 23.5233 27.0025 23.7188 27.0025 23.9162C27.0025 24.1136 26.9635 24.3091 26.8878 24.4914C26.8121 24.6738 26.7012 24.8394 26.5613 24.9787L24.9751 26.5612C24.8357 26.7011 24.6701 26.812 24.4878 26.8877C24.3055 26.9634 24.11 27.0024 23.9126 27.0024C23.7152 27.0024 23.5197 26.9634 23.3374 26.8877C23.155 26.812 22.9894 26.7011 22.8501 26.5612L15.7801 19.49L13.3751 25.7612C13.3751 25.7737 13.3651 25.7875 13.3588 25.8012C13.2058 26.158 12.9512 26.4619 12.6266 26.6751C12.3021 26.8882 11.9221 27.0012 11.5338 27H11.4351C11.0302 26.9828 10.6403 26.8418 10.3181 26.5958C9.99599 26.3499 9.75713 26.011 9.63383 25.625L3.10008 5.61496C2.98792 5.26501 2.97434 4.89092 3.06084 4.53375C3.14735 4.17659 3.33058 3.85017 3.59043 3.59031C3.85029 3.33046 4.17671 3.14722 4.53388 3.06072C4.89104 2.97422 5.26513 2.9878 5.61508 3.09996L25.6251 9.63371C26.0075 9.76164 26.3423 10.0022 26.5856 10.3238C26.8289 10.6454 26.9693 11.0331 26.9884 11.4359C27.0074 11.8387 26.9043 12.2379 26.6924 12.581C26.4806 12.9241 26.17 13.1952 25.8013 13.3587L25.7613 13.375L19.4901 15.7837L26.5613 22.8537ZM11.0001 2.99996C11.2653 2.99996 11.5197 2.8946 11.7072 2.70707C11.8947 2.51953 12.0001 2.26518 12.0001 1.99996V0.99996C12.0001 0.734744 11.8947 0.48039 11.7072 0.292853C11.5197 0.105317 11.2653 -3.97951e-05 11.0001 -3.97951e-05C10.7349 -3.97951e-05 10.4805 0.105317 10.293 0.292853C10.1054 0.48039 10.0001 0.734744 10.0001 0.99996V1.99996C10.0001 2.26518 10.1054 2.51953 10.293 2.70707C10.4805 2.8946 10.7349 2.99996 11.0001 2.99996ZM1.00008 12H2.00008C2.2653 12 2.51965 11.8946 2.70719 11.7071C2.89473 11.5195 3.00008 11.2652 3.00008 11C3.00008 10.7347 2.89473 10.4804 2.70719 10.2929C2.51965 10.1053 2.2653 9.99996 2.00008 9.99996H1.00008C0.734866 9.99996 0.480512 10.1053 0.292975 10.2929C0.105439 10.4804 8.22752e-05 10.7347 8.22752e-05 11C8.22752e-05 11.2652 0.105439 11.5195 0.292975 11.7071C0.480512 11.8946 0.734866 12 1.00008 12ZM14.5526 3.89496C14.6701 3.95381 14.7981 3.98892 14.9292 3.99828C15.0603 4.00764 15.1919 3.99106 15.3166 3.9495C15.4413 3.90794 15.5565 3.84221 15.6558 3.75606C15.7551 3.66992 15.8364 3.56505 15.8951 3.44746L16.8951 1.44746C17.0138 1.21026 17.0334 0.935622 16.9496 0.683972C16.8658 0.432322 16.6854 0.22427 16.4482 0.105585C16.211 -0.0130991 15.9364 -0.032694 15.6847 0.0511114C15.4331 0.134917 15.225 0.315257 15.1063 0.55246L14.1063 2.55246C14.0474 2.6699 14.0123 2.7978 14.0028 2.92884C13.9934 3.05988 14.0098 3.1915 14.0513 3.31618C14.0927 3.44085 14.1583 3.55614 14.2443 3.65545C14.3304 3.75476 14.4351 3.83615 14.5526 3.89496ZM2.55258 14.1062L0.552582 15.1062C0.315379 15.2249 0.135039 15.4329 0.0512334 15.6846C-0.0325719 15.9362 -0.0129771 16.2109 0.105707 16.4481C0.224392 16.6853 0.432444 16.8656 0.684094 16.9494C0.935744 17.0332 1.21038 17.0136 1.44758 16.895L3.44758 15.895C3.56503 15.8362 3.66976 15.7549 3.75578 15.6556C3.8418 15.5564 3.90743 15.4412 3.94893 15.3166C3.99043 15.192 4.00697 15.0604 3.99763 14.9294C3.98828 14.7984 3.95322 14.6705 3.89446 14.5531C3.83569 14.4356 3.75437 14.3309 3.65513 14.2449C3.55589 14.1589 3.44068 14.0932 3.31607 14.0517C3.19147 14.0102 3.05991 13.9937 2.92891 14.003C2.79791 14.0124 2.67003 14.0474 2.55258 14.1062Z" fill="black"/>
<path d="M15.9958 15.0005C15.9958 15.1464 15.9646 15.2905 15.9044 15.4227C15.8442 15.5549 15.7564 15.672 15.6472 15.7659C15.538 15.8597 15.41 15.9279 15.2723 15.9658C15.1345 16.0036 14.9904 16.0102 14.8499 15.985C14.7094 15.9598 14.576 15.9034 14.4591 15.8199C14.3422 15.7364 14.2446 15.6277 14.1731 15.5015C14.1016 15.3752 14.0581 15.2345 14.0454 15.0892C14.0328 14.944 14.0514 14.7976 14.0999 14.6604L12.6614 13.7152C12.524 13.853 12.3498 13.9463 12.1608 13.9833C11.9718 14.0203 11.7763 13.9994 11.5989 13.9232C11.4214 13.847 11.2699 13.7189 11.1634 13.555C11.0568 13.3911 11 13.1986 11 13.0018C11 12.8049 11.0568 12.6125 11.1634 12.4486C11.2699 12.2846 11.4214 12.1565 11.5989 12.0803C11.7763 12.0041 11.9718 11.9832 12.1608 12.0202C12.3498 12.0572 12.524 12.1505 12.6614 12.2883L14.0999 11.3445C14.0175 11.113 14.0215 10.8585 14.1109 10.6298C14.2004 10.4011 14.3691 10.214 14.5848 10.1045C14.8006 9.99495 15.0483 9.97055 15.2805 10.036C15.5127 10.1014 15.7133 10.252 15.8438 10.4591C15.9743 10.6661 16.0256 10.9151 15.988 11.1584C15.9503 11.4018 15.8263 11.6224 15.6397 11.7781C15.453 11.9339 15.2168 12.0138 14.9762 12.0027C14.7356 11.9916 14.5074 11.8902 14.3352 11.7179L12.8967 12.6631C12.9744 12.8828 12.9744 13.1235 12.8967 13.3432L14.3352 14.2885C14.4726 14.151 14.6465 14.058 14.8353 14.0211C15.0241 13.9842 15.2193 14.005 15.3965 14.081C15.5737 14.157 15.7251 14.2848 15.8317 14.4483C15.9383 14.6119 15.9954 14.8039 15.9958 15.0005Z" fill="#EDEDED"/>
</g>
<defs>
<clipPath id="clip0_51_16">
<rect width="27" height="27" fill="white"/>
</clipPath>
</defs>
</svg>
